<?xml version="1.0" encoding="UTF-8"?>
<svg xmlns="http://www.w3.org/2000/svg" width="24" height="24" viewBox="0 0 24 24"><path d="M23.9 6.3L20.7 4h-.3l-3.2 2.3c-.1.1-.1.2-.1.3v2.5h-1.7V6.6c0-.1-.1-.2-.1-.3L12.1 4h-.2L8.7 6.3c-.1.1-.1.2-.1.3v2.5H6.9V6.6c0-.1-.1-.2-.1-.3L3.6 4h-.3L.1 6.3c0 .1-.1.2-.1.3v13.1c0 .2.1.3.2.3h1.2c.1 0 .2-.1.2-.2V7.3L3.4 6l1.7 1.3v12.5c0 .1.1.2.2.2h1.2c.1 0 .2-.1.2-.2v-2.2h1.7v2.2c0 .1.1.2.2.2H10c.1 0 .2-.1.2-.2V7.3L12 6l1.7 1.3v12.5c0 .1.1.2.2.2h1.2c.1 0 .2-.1.2-.2v-2.2H17v2.2c0 .1.1.2.2.2h1.2c.1 0 .2-.1.2-.2V7.3l2-1.3 1.7 1.3v12.5c0 .1.1.2.2.2h1.2c.1 0 .2-.1.2-.2V6.6c.1-.1 0-.2 0-.3zM8.6 15.9H6.9v-1.7h1.7v1.7zm0-3.4H6.9v-1.7h1.7v1.7zm8.5 3.4h-1.7v-1.7h1.7v1.7zm0-3.4h-1.7v-1.7h1.7v1.7z"></path></svg>
