<?xml version="1.0" encoding="UTF-8"?>
<svg viewBox="0 0 24 24"><path d="M15.53 15.866l-3.353-3.353a.25.25 0 0 0-.354 0L8.47 15.866a.25.25 0 0 0 0 .354l1.06 1.06a.25.25 0 0 0 .354 0L11 16.164v7.586c0 .138.112.25.25.25h1.5a.25.25 0 0 0 .25-.25v-7.586l1.116 1.116a.25.25 0 0 0 .354 0l1.06-1.06a.25.25 0 0 0 0-.354zM18 2.97h2v4.254l-2-1.637V2.969zM6.713 22H4V9.837l8-6.545 8 6.545V22h-2.713a.25.25 0 0 0-.25.25v1.5c0 .138.112.25.25.25h4.463a.25.25 0 0 0 .25-.25V12h1.75a.25.25 0 0 0 .25-.25V10h-.643L22 8.89V1.25a.25.25 0 0 0-.25-.25h-5.5a.25.25 0 0 0-.25.25v2.731L12.158.838a.25.25 0 0 0-.316 0L.643 10H0v1.75c0 .138.112.25.25.25H2v11.75c0 .138.112.25.25.25h4.463a.25.25 0 0 0 .25-.25v-1.5a.25.25 0 0 0-.25-.25z"></path></svg>
