<?xml version="1.0" encoding="UTF-8"?>
<svg xmlns="http://www.w3.org/2000/svg" width="24" height="24" viewBox="0 0 24 24"><path d="M2.9 7.4c-.1-.1-.1-.2 0-.3L4 6c.1-.1.2-.1.3 0l1.8 1.8c.1.1.1.2 0 .3l-1 1.1c-.1.1-.2.1-.3 0L2.9 7.4zM11.2 6h1.6c.1 0 .2-.1.2-.2V3.2c0-.1-.1-.2-.2-.2h-1.6c-.1 0-.2.1-.2.2v2.6c0 .1.1.2.2.2zm7.7 3.2c.1.1.2.1.3 0L21 7.4c.1-.1.1-.2 0-.3L19.9 6c-.1-.1-.2-.1-.3 0l-1.8 1.8c-.1.1-.1.2 0 .3l1.1 1.1zm5.1 9v1.6c0 .1-.1.2-.2.2H.2c-.1 0-.2-.1-.2-.2v-1.6c0-.1.1-.2.2-.2h5.5c-.5-.9-.7-1.9-.7-3 0-3.9 3.1-7 7-7s7 3.1 7 7c0 1.1-.2 2.1-.7 3h5.5c.1 0 .2.1.2.2zm-8-.2c.6-.8 1-1.9 1-3 0-2.8-2.2-5-5-5s-5 2.2-5 5c0 1.1.4 2.2 1 3h8zM.2 16h2.6c.1 0 .2-.1.2-.2v-1.6c0-.1-.1-.2-.2-.2H.2c-.1 0-.2.1-.2.2v1.6c0 .1.1.2.2.2zm23.6-2h-2.6c-.1 0-.2.1-.2.2v1.6c0 .1.1.2.2.2h2.6c.1 0 .2-.1.2-.2v-1.6c0-.1-.1-.2-.2-.2zm0 8H.2c-.1 0-.2.1-.2.2v1.6c0 .1.1.2.2.2h23.6c.1 0 .2-.1.2-.2v-1.6c0-.1-.1-.2-.2-.2z"></path></svg>
