<?xml version="1.0" encoding="UTF-8"?>
<svg width="24" height="24" viewBox="0 0 24 24" xmlns="http://www.w3.org/2000/svg"><g fill-rule="evenodd"><path d="M.155 7.802L6.642.122a.25.25 0 0 1 .19-.088h9.99a.25.25 0 0 1 .191.089l6.488 7.672a.25.25 0 0 1 0 .323L11.94 21.792a.15.15 0 0 1-.23 0L.156 8.125a.25.25 0 0 1 0-.323zm2.482.16l9.188 10.868 9.193-10.873-5.008-5.923H7.645L2.637 7.963z"></path><path d="M11.725 1.645l.81-.587 3.603 4.976h5.749v2h-5.735L12.95 19.241l-1.197-.342-1.198.342L7.354 8.034H2.328v-2H7.31l3.604-4.976.81.587zm0 1.705L9.78 6.034h3.887L11.725 3.35zM9.434 8.034l2.319 8.117 2.319-8.117H9.434z"></path></g></svg>
