<?xml version="1.0" encoding="UTF-8"?>
<svg viewBox="0 0 24 24" xmlns="http://www.w3.org/2000/svg"><path d="M12 16v-2h-2v2H8.914c-.551 0-1.067.442-1.15.988l-.753 5.024c-.082.55.298.988.85.988h6.005a.848.848 0 0 0 .86-.988l-.694-5.024A1.176 1.176 0 0 0 12.894 16H12zM2 1.995c0-.55.445-.995.993-.995h16.014a1 1 0 0 1 .993.995v8.01c0 .55-.445.995-.993.995H2.993A1 1 0 0 1 2 10.005v-8.01zM4 3h14v6H4V3zm16 2h2.001c.552 0 .999.444.999 1v1h-3V5zm1 2h2v5h-2V7zm-11 6a1 1 0 0 1 .999-1H23v1a1 1 0 0 1-.999 1H10v-1zm-.612 5h2.991l.484 3h-4l.525-3z" fill-rule="evenodd"></path></svg>
