<?xml version="1.0" encoding="UTF-8"?>
<svg xmlns="http://www.w3.org/2000/svg" width="24" height="24" viewBox="0 0 24 24"><path d="M4.8 14.9c.2.8 1.4.9 1.7.1l1.4-3.8.8 6.7c.1 1 1.6 1.1 1.8 0L12 9.1 13.5 21c.1 1 1.6 1.1 1.8 0l2-11.2 1.4 5.7c.2.8 1.3.9 1.7.2l1.4-2.5h1.9c.3 0 .5-.2.5-.5v-.8c0-.3-.2-.5-.5-.5h-2.4c-.3 0-.6.2-.8.5l-.7 1.1-1.9-7.6c-.2-.9-1.6-.9-1.8.1L14.4 15 12.9 2.9c-.1-1-1.6-1.1-1.8 0l-1.4 8.5-.5-4.2c-.1-1-1.4-1.1-1.7-.2l-1.7 4.7-.6-2.2c-.2-.8-1.4-.9-1.7-.1L2.4 12H.5c-.3 0-.5.2-.5.5v.8c0 .3.2.5.5.5H3c.4 0 .7-.2.8-.5l.3-.8.7 2.4z"></path></svg>
